<svg width="20" height="20" viewBox="0 0 20 20" fill="none" xmlns="http://www.w3.org/2000/svg">
<path d="M0 4C0 1.79086 1.79086 0 4 0H16C18.2091 0 20 1.79086 20 4V16C20 18.2091 18.2091 20 16 20H4C1.79086 20 0 18.2091 0 16V4Z" fill="#AC004B"/>
<path fill-rule="evenodd" clip-rule="evenodd" d="M9.66667 4.11111C12.8576 4.11111 15.4444 6.74766 15.4444 10C15.4444 13.2523 12.8576 15.8889 9.66667 15.8889C6.47569 15.8889 3.88889 13.2523 3.88889 10C3.88889 6.74766 6.47569 4.11111 9.66667 4.11111ZM9.66667 5.77778C7.39616 5.77778 5.55556 7.66813 5.55556 10C5.55556 12.3319 7.39616 14.2222 9.66667 14.2222C11.9372 14.2222 13.7778 12.3319 13.7778 10C13.7778 7.66813 11.9372 5.77778 9.66667 5.77778Z" fill="white"/>
</svg>
